<svg height="360" viewBox="0 0 480 360" width="480" xmlns="http://www.w3.org/2000/svg" xmlns:xlink="http://www.w3.org/1999/xlink"><filter id="a" height="1000%" width="1000%" x="-500%" y="-500%"><feOffset dy="16" in="SourceAlpha" result="shadowOffsetOuter"/><feGaussianBlur in="shadowOffsetOuter" result="shadowBlurOuter" stdDeviation="24"/><feColorMatrix in="shadowBlurOuter" values="0 0 0 0 0.12 0 0 0 0 0.17 0 0 0 0 0.21 0 0 0 0.2 0"/></filter><path d="m0 220v-220h200zm480-80v220h-200z" fill="#f6f8fa"/><g fill="#fff"><path d="m40 50h400v260h-400z" filter="url(#a)"/><path d="m40 50h400v260h-400z"/><path d="m103 176h80v160h-80zm217-152h88v88h-88z" filter="url(#a)"/><path d="m103 176h80v160h-80zm217-152h88v88h-88z"/><path d="m230.97 198 16.971 16.971-16.97 16.97-16.971-16.969z" filter="url(#a)"/></g><path d="m230.97 198 16.971 16.971-16.97 16.97-16.971-16.969z" fill="#02c6a4"/><path d="m203 121h-100v100z" fill="#fff" filter="url(#a)"/><path d="m203 121h-100v100z" fill="#84e482"/><circle cx="288" cy="166" fill="#fff" filter="url(#a)" r="32"/><circle cx="288" cy="166" fill="#0eb3ce" r="32"/></svg>