<svg id="Calque_1" height="50" data-name="Calque 1" xmlns="http://www.w3.org/2000/svg" xmlns:xlink="http://www.w3.org/1999/xlink"
  viewBox="0 0 54 59.63">
  <defs>
    <style>
      .cls-1 {
        fill: url(#Dégradé_sans_nom_27);
      }

      .cls-2 {
        fill: #06aba2;
      }

      .cls-3 {
        fill: #fff;
      }
    </style>
    <linearGradient id="Dégradé_sans_nom_27" x1="22.49" y1="51.8" x2="75.66" y2="51.8" gradientUnits="userSpaceOnUse">
      <stop offset="0" stop-color="#fff" />
      <stop offset="0" stop-color="#06aba2" />
      <stop offset="0.29" stop-color="#06a8a3" />
      <stop offset="0.53" stop-color="#059da8" />
      <stop offset="0.75" stop-color="#038cb0" />
      <stop offset="0.96" stop-color="#0074bb" />
      <stop offset="0.98" stop-color="#0071bc" />
    </linearGradient>
  </defs>
  <title>logo jointify</title>
  <path class="cls-1"
    d="M49.85,29.42h-.17a2.42,2.42,0,0,0,.17-.88,2.83,2.83,0,0,0-5.64,0,3.2,3.2,0,0,0,0,.48,4.37,4.37,0,0,0,.25.91,2.39,2.39,0,0,1,.09.66,3.1,3.1,0,0,1-2.82,2.63,3.49,3.49,0,0,1-3.16-1.4,5,5,0,0,0-4.69-3,4.88,4.88,0,0,0-5,4.71,5.25,5.25,0,0,0,.19,1.27A4.8,4.8,0,0,0,30.6,37a3.61,3.61,0,0,1,1,2.5c-.06,1.7-1.55,3.47-3,3.4a2.23,2.23,0,0,1-1.27-.51,2.93,2.93,0,0,0-1.92-.78,2.87,2.87,0,0,0-2.87,2.69A2.75,2.75,0,0,0,25,47a22.89,22.89,0,0,0-1,6.59C24,66.89,35.59,77.7,49.85,77.7S75.66,66.89,75.66,53.56,64.1,29.42,49.85,29.42Z"
    transform="translate(-21.66 -18.07)" />
  <ellipse class="cls-2" cx="5.44" cy="20.16" rx="2.12" ry="1.99" />
  <ellipse class="cls-2" cx="18.59" cy="9.83" rx="2.12" ry="1.99" />
  <ellipse class="cls-2" cx="1.66" cy="15.9" rx="1.66" ry="1.55" />
  <ellipse class="cls-2" cx="8.79" cy="7.84" rx="1.49" ry="1.4" />
  <ellipse class="cls-2" cx="16.47" cy="3.25" rx="1.31" ry="1.23" />
  <ellipse class="cls-2" cx="10.71" cy="1.13" rx="1.06" ry="0.99" />
  <ellipse class="cls-2" cx="3.92" cy="7.84" rx="1.22" ry="1.14" />
  <ellipse class="cls-2" cx="3.32" cy="0.56" rx="0.6" ry="0.56" />
  <path class="cls-3"
    d="M55.62,36.92h0c-2.92,0-5.31,2.69-5.31,6V57.46c0,3.21,2.33,5.83,5.18,5.83h.26c2.85,0,5.18-2.62,5.18-5.83V42.89C60.93,39.61,58.54,36.92,55.62,36.92Z"
    transform="translate(-21.66 -18.07)" />
  <path class="cls-3"
    d="M51.2,64.07c-3.23-2.3-3.37-6.43-3.38-6.75-.17-3.12-2.49-5.61-5.3-5.61h0c-2.81,0-5.13,2.49-5.3,5.61,0,.76-.13,6.12,3.6,9.74a10.23,10.23,0,0,0,7.55,2.79A11.33,11.33,0,0,0,58,64.69,6.87,6.87,0,0,1,51.2,64.07Z"
    transform="translate(-21.66 -18.07)" />
</svg>