<svg data-v-5f19e91b="" xmlns="http://www.w3.org/2000/svg" width="150" height="50" viewBox="0 0 323 81"><!----> <!----> <!----> <g data-v-5f19e91b="" id="0811ef6a-186a-008b-2ce1-bd833c3089bd" fill="white" transform="matrix(4.2105263157894735,0,0,4.2105263157894735,96.46280171369251,4.255667592349809)"><path d="M7.08 9.25L7.08 9.25Q7.08 10.12 6.65 10.86L6.65 10.86L6.65 10.86Q6.22 11.61 5.47 12.04L5.47 12.04L5.47 12.04Q4.73 12.47 3.86 12.47L3.86 12.47L3.86 12.47Q2.98 12.47 2.24 12.03L2.24 12.03L2.24 12.03Q1.50 11.59 1.06 10.86L1.06 10.86L1.06 10.86Q0.63 10.12 0.63 9.25L0.63 9.25L0.63 9.25Q0.63 9.07 0.75 8.95L0.75 8.95L0.75 8.95Q0.87 8.83 1.05 8.83L1.05 8.83L1.05 8.83Q1.23 8.83 1.35 8.95L1.35 8.95L1.35 8.95Q1.47 9.07 1.47 9.25L1.47 9.25L1.47 9.25Q1.47 9.90 1.80 10.44L1.80 10.44L1.80 10.44Q2.13 10.99 2.67 11.31L2.67 11.31L2.67 11.31Q3.22 11.63 3.86 11.63L3.86 11.63L3.86 11.63Q4.51 11.63 5.05 11.31L5.05 11.31L5.05 11.31Q5.60 10.99 5.92 10.44L5.92 10.44L5.92 10.44Q6.24 9.88 6.24 9.25L6.24 9.25L6.24 1.82L6.24 1.82Q6.24 1.64 6.37 1.52L6.37 1.52L6.37 1.52Q6.50 1.40 6.66 1.40L6.66 1.40L6.66 1.40Q6.85 1.40 6.96 1.52L6.96 1.52L6.96 1.52Q7.08 1.64 7.08 1.82L7.08 1.82L7.08 9.25ZM13.24 4.59L13.24 4.59Q14.34 4.59 15.23 5.10L15.23 5.10L15.23 5.10Q16.13 5.61 16.64 6.51L16.64 6.51L16.64 6.51Q17.15 7.41 17.15 8.51L17.15 8.51L17.15 8.51Q17.15 9.60 16.64 10.50L16.64 10.50L16.64 10.50Q16.13 11.40 15.23 11.91L15.23 11.91L15.23 11.91Q14.34 12.42 13.24 12.42L13.24 12.42L13.24 12.42Q12.14 12.42 11.24 11.91L11.24 11.91L11.24 11.91Q10.35 11.40 9.84 10.50L9.84 10.50L9.84 10.50Q9.32 9.60 9.32 8.51L9.32 8.51L9.32 8.51Q9.32 7.41 9.84 6.51L9.84 6.51L9.84 6.51Q10.35 5.61 11.24 5.10L11.24 5.10L11.24 5.10Q12.14 4.59 13.24 4.59L13.24 4.59ZM13.24 5.38L13.24 5.38Q12.38 5.38 11.68 5.79L11.68 5.79L11.68 5.79Q10.98 6.20 10.57 6.92L10.57 6.92L10.57 6.92Q10.16 7.63 10.16 8.51L10.16 8.51L10.16 8.51Q10.16 9.39 10.57 10.11L10.57 10.11L10.57 10.11Q10.98 10.82 11.68 11.23L11.68 11.23L11.68 11.23Q12.38 11.63 13.24 11.63L13.24 11.63L13.24 11.63Q14.11 11.63 14.81 11.23L14.81 11.23L14.81 11.23Q15.51 10.82 15.91 10.11L15.91 10.11L15.91 10.11Q16.31 9.39 16.31 8.51L16.31 8.51L16.31 8.51Q16.31 7.63 15.91 6.92L15.91 6.92L15.91 6.92Q15.51 6.20 14.81 5.79L14.81 5.79L14.81 5.79Q14.11 5.38 13.24 5.38L13.24 5.38ZM19.53 5.10L19.53 5.10Q19.53 4.90 19.65 4.79L19.65 4.79L19.65 4.79Q19.77 4.68 19.95 4.68L19.95 4.68L19.95 4.68Q20.15 4.68 20.26 4.79L20.26 4.79L20.26 4.79Q20.37 4.90 20.37 5.10L20.37 5.10L20.37 11.91L20.37 11.91Q20.37 12.10 20.26 12.21L20.26 12.21L20.26 12.21Q20.15 12.33 19.95 12.33L19.95 12.33L19.95 12.33Q19.77 12.33 19.65 12.21L19.65 12.21L19.65 12.21Q19.53 12.10 19.53 11.91L19.53 11.91L19.53 5.10ZM19.95 1.76L19.95 1.76Q20.22 1.76 20.41 1.93L20.41 1.93L20.41 1.93Q20.59 2.10 20.59 2.41L20.59 2.41L20.59 2.41Q20.59 2.69 20.41 2.88L20.41 2.88L20.41 2.88Q20.22 3.07 19.94 3.07L19.94 3.07L19.94 3.07Q19.66 3.07 19.47 2.88L19.47 2.88L19.47 2.88Q19.29 2.69 19.29 2.41L19.29 2.41L19.29 2.41Q19.29 2.10 19.49 1.93L19.49 1.93L19.49 1.93Q19.68 1.76 19.95 1.76L19.95 1.76ZM26.67 4.58L26.67 4.58Q27.69 4.58 28.50 5.00L28.50 5.00L28.50 5.00Q29.30 5.42 29.76 6.22L29.76 6.22L29.76 6.22Q30.21 7.03 30.21 8.15L30.21 8.15L30.21 11.91L30.21 11.91Q30.21 12.10 30.09 12.21L30.09 12.21L30.09 12.21Q29.97 12.33 29.79 12.33L29.79 12.33L29.79 12.33Q29.61 12.33 29.49 12.21L29.49 12.21L29.49 12.21Q29.37 12.10 29.37 11.91L29.37 11.91L29.37 8.15L29.37 8.15Q29.37 6.82 28.62 6.12L28.62 6.12L28.62 6.12Q27.87 5.42 26.67 5.42L26.67 5.42L26.67 5.42Q25.93 5.42 25.32 5.70L25.32 5.70L25.32 5.70Q24.71 5.99 24.36 6.50L24.36 6.50L24.36 6.50Q24.01 7.01 24.01 7.63L24.01 7.63L24.01 11.91L24.01 11.91Q24.01 12.10 23.90 12.21L23.90 12.21L23.90 12.21Q23.79 12.33 23.59 12.33L23.59 12.33L23.59 12.33Q23.41 12.33 23.29 12.21L23.29 12.21L23.29 12.21Q23.17 12.10 23.17 11.91L23.17 11.91L23.17 5.10L23.17 5.10Q23.17 4.90 23.29 4.79L23.29 4.79L23.29 4.79Q23.41 4.68 23.59 4.68L23.59 4.68L23.59 4.68Q23.79 4.68 23.90 4.79L23.90 4.79L23.90 4.79Q24.01 4.90 24.01 5.10L24.01 5.10L24.01 5.82L24.01 5.82Q24.49 5.24 25.17 4.91L25.17 4.91L25.17 4.91Q25.86 4.58 26.67 4.58L26.67 4.58ZM36.05 11.48L36.05 11.48Q36.25 11.48 36.37 11.60L36.37 11.60L36.37 11.60Q36.48 11.72 36.48 11.91L36.48 11.91L36.48 11.91Q36.48 12.10 36.37 12.21L36.37 12.21L36.37 12.21Q36.25 12.33 36.05 12.33L36.05 12.33L35.73 12.33L35.73 12.33Q34.96 12.33 34.36 11.98L34.36 11.98L34.36 11.98Q33.75 11.63 33.42 11.03L33.42 11.03L33.42 11.03Q33.08 10.42 33.08 9.65L33.08 9.65L33.08 5.71L31.99 5.71L31.99 5.71Q31.82 5.71 31.72 5.61L31.72 5.61L31.72 5.61Q31.61 5.50 31.61 5.33L31.61 5.33L31.61 5.33Q31.61 5.17 31.72 5.06L31.72 5.06L31.72 5.06Q31.82 4.96 31.99 4.96L31.99 4.96L33.08 4.96L33.08 2.67L33.08 2.67Q33.08 2.48 33.20 2.36L33.20 2.36L33.20 2.36Q33.32 2.24 33.50 2.24L33.50 2.24L33.50 2.24Q33.70 2.24 33.82 2.36L33.82 2.36L33.82 2.36Q33.94 2.48 33.94 2.67L33.94 2.67L33.94 4.96L35.78 4.96L35.78 4.96Q35.95 4.96 36.06 5.06L36.06 5.06L36.06 5.06Q36.16 5.17 36.16 5.33L36.16 5.33L36.16 5.33Q36.16 5.50 36.06 5.61L36.06 5.61L36.06 5.61Q35.95 5.71 35.78 5.71L35.78 5.71L33.94 5.71L33.94 9.65L33.94 9.65Q33.94 10.46 34.44 10.97L34.44 10.97L34.44 10.97Q34.94 11.48 35.74 11.48L35.74 11.48L36.05 11.48ZM38.51 5.10L38.51 5.10Q38.51 4.90 38.63 4.79L38.63 4.79L38.63 4.79Q38.75 4.68 38.93 4.68L38.93 4.68L38.93 4.68Q39.13 4.68 39.24 4.79L39.24 4.79L39.24 4.79Q39.35 4.90 39.35 5.10L39.35 5.10L39.35 11.91L39.35 11.91Q39.35 12.10 39.24 12.21L39.24 12.21L39.24 12.21Q39.13 12.33 38.93 12.33L38.93 12.33L38.93 12.33Q38.75 12.33 38.63 12.21L38.63 12.21L38.63 12.21Q38.51 12.10 38.51 11.91L38.51 11.91L38.51 5.10ZM38.93 1.76L38.93 1.76Q39.20 1.76 39.39 1.93L39.39 1.93L39.39 1.93Q39.58 2.10 39.58 2.41L39.58 2.41L39.58 2.41Q39.58 2.69 39.39 2.88L39.39 2.88L39.39 2.88Q39.20 3.07 38.92 3.07L38.92 3.07L38.92 3.07Q38.64 3.07 38.46 2.88L38.46 2.88L38.46 2.88Q38.28 2.69 38.28 2.41L38.28 2.41L38.28 2.41Q38.28 2.10 38.47 1.93L38.47 1.93L38.47 1.93Q38.67 1.76 38.93 1.76L38.93 1.76ZM45.58 2.16L45.58 2.16Q44.56 2.16 44.10 2.83L44.10 2.83L44.10 2.83Q43.64 3.51 43.64 4.66L43.64 4.66L43.64 4.96L45.49 4.96L45.49 4.96Q45.65 4.96 45.76 5.06L45.76 5.06L45.76 5.06Q45.86 5.17 45.86 5.33L45.86 5.33L45.86 5.33Q45.86 5.50 45.76 5.61L45.76 5.61L45.76 5.61Q45.65 5.71 45.49 5.71L45.49 5.71L43.64 5.71L43.64 11.91L43.64 11.91Q43.64 12.10 43.52 12.21L43.52 12.21L43.52 12.21Q43.40 12.33 43.20 12.33L43.20 12.33L43.20 12.33Q43.02 12.33 42.90 12.21L42.90 12.21L42.90 12.21Q42.78 12.10 42.78 11.91L42.78 11.91L42.78 5.71L41.69 5.71L41.69 5.71Q41.52 5.71 41.42 5.61L41.42 5.61L41.42 5.61Q41.31 5.50 41.31 5.33L41.31 5.33L41.31 5.33Q41.31 5.17 41.42 5.06L41.42 5.06L41.42 5.06Q41.52 4.96 41.69 4.96L41.69 4.96L42.78 4.96L42.78 4.66L42.78 4.66Q42.78 3.16 43.48 2.28L43.48 2.28L43.48 2.28Q44.18 1.40 45.58 1.40L45.58 1.40L45.58 1.40Q45.77 1.40 45.89 1.50L45.89 1.50L45.89 1.50Q46.00 1.61 46.00 1.78L46.00 1.78L46.00 1.78Q46.00 1.95 45.89 2.05L45.89 2.05L45.89 2.05Q45.77 2.16 45.58 2.16L45.58 2.16ZM53.35 4.69L53.35 4.69Q53.62 4.80 53.62 5.01L53.62 5.01L53.62 5.01Q53.62 5.07 53.56 5.21L53.56 5.21L48.86 15.40L48.86 15.40Q48.73 15.65 48.54 15.65L48.54 15.65L48.54 15.65Q48.45 15.65 48.34 15.61L48.34 15.61L48.34 15.61Q48.08 15.50 48.08 15.29L48.08 15.29L48.08 15.29Q48.08 15.23 48.13 15.09L48.13 15.09L49.53 12.07L49.53 12.07Q49.52 12.05 49.48 11.97L49.48 11.97L46.41 5.25L46.41 5.25Q46.35 5.14 46.35 5.03L46.35 5.03L46.35 5.03Q46.35 4.82 46.59 4.70L46.59 4.70L46.59 4.70Q46.70 4.65 46.82 4.65L46.82 4.65L46.82 4.65Q47.03 4.65 47.14 4.89L47.14 4.89L49.98 11.10L52.84 4.90L52.84 4.90Q52.96 4.65 53.16 4.65L53.16 4.65L53.16 4.65Q53.26 4.65 53.35 4.69L53.35 4.69Z"></path></g> <!----> <g data-v-5f19e91b="" id="344a9ed7-be02-1a5e-9c90-53a8a0a6bcf0" transform="matrix(0.9445799085828993,0,0,0.9445799085828993,-7.10759674563613,-6.735097763407005)" stroke="none" fill="white"><path fill-rule="evenodd" clip-rule="evenodd" d="M89.314,35.387L69.91,68.997l-0.016,0.026c-2.549,4.397-6.655,7.356-11.22,8.579  c-5.415,1.45-11.199,0.37-15.699-2.919l2.011-3.483c3.572,2.784,8.249,3.725,12.658,2.543c3.544-0.949,6.729-3.219,8.726-6.583  c0.051-0.107,0.11-0.211,0.181-0.311l19.345-33.505c0.019-0.039,0.04-0.077,0.062-0.115c1.991-3.449,2.389-7.405,1.426-11  c-0.949-3.544-3.218-6.729-6.581-8.726c-0.091-0.042-0.179-0.091-0.264-0.148c-3.424-1.938-7.337-2.319-10.894-1.366  c-3.593,0.963-6.82,3.287-8.813,6.739l-19.5,33.775c-2.22,3.844-2.522,8.514-0.888,12.625l-2.394,4.146  c-3.433-5.743-3.536-12.945-0.172-18.771l19.5-33.775c2.544-4.406,6.658-7.371,11.235-8.598c4.527-1.213,9.516-0.725,13.893,1.753  c0.107,0.052,0.21,0.113,0.306,0.182c4.316,2.555,7.223,6.62,8.431,11.132c1.213,4.527,0.725,9.515-1.752,13.891  C89.439,35.194,89.381,35.293,89.314,35.387z"></path><path fill-rule="evenodd" clip-rule="evenodd" d="M62.022,49.659L42.618,83.268l-0.003,0.007l0.003,0.002  c-5.056,8.757-16.323,11.815-25.112,6.852c-0.103-0.048-0.201-0.104-0.293-0.169c-8.7-5.125-11.687-16.419-6.626-25.184L30.086,31  c0.023-0.039,0.047-0.078,0.072-0.115c2.553-4.345,6.631-7.269,11.163-8.483c5.419-1.452,11.202-0.373,15.704,2.922l-2.012,3.483  c-3.568-2.783-8.256-3.726-12.66-2.546c-3.563,0.955-6.764,3.243-8.757,6.636c-0.017,0.035-0.036,0.069-0.056,0.103l-19.5,33.776  c-3.987,6.905-1.598,15.818,5.308,19.81l0.005,0.003c6.907,3.987,15.823,1.598,19.813-5.313l0.003,0.002l19.435-33.663  c0.02-0.039,0.04-0.077,0.062-0.115c2.219-3.843,2.521-8.51,0.89-12.62l2.394-4.146c3.4,5.694,3.533,12.824,0.25,18.626  C62.147,49.465,62.09,49.565,62.022,49.659z"></path></g></svg>