<?xml version="1.0" standalone="no"?>
<!DOCTYPE svg PUBLIC "-//W3C//DTD SVG 20010904//EN"
 "http://www.w3.org/TR/2001/REC-SVG-20010904/DTD/svg10.dtd">
<svg version="1.0" xmlns="http://www.w3.org/2000/svg"
 width="261.000000pt" height="261.000000pt" viewBox="0 0 261.000000 261.000000"
 preserveAspectRatio="xMidYMid meet">
<metadata>
Created by potrace 1.11, written by Peter Selinger 2001-2013
</metadata>
<g transform="translate(0.000000,261.000000) scale(0.100000,-0.100000)"
fill="#000000" stroke="none">
<path d="M327 2603 c-12 -11 -8 -41 7 -46 15 -6 36 11 36 29 0 6 -7 15 -16 18
-19 7 -19 7 -27 -1z"/>
<path d="M610 2580 c-21 -40 12 -80 54 -64 22 8 31 50 16 69 -18 22 -57 19
-70 -5z"/>
<path d="M848 2508 c-43 -35 -15 -103 40 -96 54 6 60 88 8 102 -29 8 -30 8
-48 -6z"/>
<path d="M531 2312 c-33 -29 -35 -59 -7 -87 14 -14 33 -25 44 -25 26 0 62 37
62 64 0 47 -64 78 -99 48z"/>
<path d="M349 2306 c-35 -17 -37 -60 -5 -82 24 -15 28 -15 51 0 27 18 31 36
15 65 -13 26 -33 31 -61 17z"/>
<path d="M943 2262 c-13 -2 -32 -15 -43 -29 -40 -51 -16 -127 45 -139 44 -8
72 2 92 32 45 69 -11 149 -94 136z"/>
<path d="M1213 2263 c-30 -6 -81 -57 -85 -86 -2 -12 1 -46 6 -75 8 -44 7 -59
-8 -86 -47 -87 -178 -89 -224 -4 -29 52 -60 85 -99 103 -148 71 -308 -36 -298
-197 4 -52 20 -89 60 -133 50 -57 59 -119 25 -185 -37 -72 -96 -91 -152 -50
-59 43 -142 34 -176 -21 -37 -59 -11 -150 49 -172 28 -11 30 -15 24 -47 -4
-19 -9 -46 -12 -60 -23 -120 -22 -279 2 -390 3 -14 7 -37 10 -53 26 -139 137
-341 262 -473 190 -202 465 -322 749 -326 315 -5 634 147 834 397 77 96 157
249 182 345 5 19 13 51 18 70 24 90 34 298 18 395 -39 235 -135 424 -302 591
-68 67 -227 187 -254 190 -4 0 -37 14 -73 31 -100 46 -264 83 -376 85 -36 0
-38 2 -37 32 3 76 -66 133 -143 119z"/>
<path d="M230 1960 c-20 -20 -26 -65 -12 -87 16 -25 61 -34 93 -18 30 16 33
22 31 64 -3 56 -72 81 -112 41z"/>
<path d="M393 1805 c-58 -25 -65 -111 -11 -149 73 -51 165 33 124 113 -14 26
-35 40 -72 47 -6 1 -24 -4 -41 -11z"/>
</g>
</svg>
